<svg xmlns="http://www.w3.org/2000/svg" xmlns:svg="http://www.w3.org/2000/svg" id="svg2" width="384.867" height="193.867" version="1.1" viewBox="0 0 384.867 193.867" xml:space="preserve"><metadata id="metadata8"/><g id="g10" transform="matrix(1.3333333,0,0,-1.3333333,0,193.86667)"><g id="g12" transform="scale(0.1)"><path id="path14" style="fill:none;stroke:#231f20;stroke-width:12.06599998;stroke-linecap:butt;stroke-linejoin:miter;stroke-miterlimit:10;stroke-dasharray:none;stroke-opacity:1" d="M 187.555,6.03125 V 1447.93 H 1629.45 V 6.03125 Z"/><path id="path16" style="fill:none;stroke:#231f20;stroke-width:6.03299999;stroke-linecap:butt;stroke-linejoin:miter;stroke-miterlimit:10;stroke-dasharray:none;stroke-opacity:1" d="m 1520.84,229.25 h 168.92 m -500.73,331.82 h 54.3 V 168.922 h 54.3 M 857.219,892.887 h 54.297 V 500.738 h 54.3 M 525.398,1224.7 h 54.297 V 838.582 H 634 m 886.84,-555.031 h 168.92 m -500.73,331.816 h 500.73 M 857.219,947.184 H 1689.76 M 525.398,1279 H 1689.76 M 133.254,229.25 H 1297.63 M 133.254,283.551 H 1297.63 M 133.254,561.07 H 965.816 M 133.254,615.367 H 965.816 M 133.254,892.887 H 634 M 133.254,947.184 H 634 M 133.254,1224.7 H 302.18 M 133.254,1279 H 302.18"/><g id="g18" transform="scale(10)"><text id="text22" style="font-style:italic;font-variant:normal;font-size:8px;font-family:'Times New Roman';-inkscape-font-specification:Times-Italic;writing-mode:lr-tb;fill:#231f20;fill-opacity:1;fill-rule:nonzero;stroke:none" transform="matrix(1,0,0,-1,171.843,125.694)"><tspan id="tspan20" x="0" y="0">Z</tspan></text><text id="text26" style="font-variant:normal;font-weight:400;font-size:6px;font-family:'Times New Roman';-inkscape-font-specification:Times-Roman;writing-mode:lr-tb;fill:#231f20;fill-opacity:1;fill-rule:nonzero;stroke:none" transform="matrix(1,0,0,-1,176.29222,123.694)"><tspan id="tspan24" x="0" y="0">0</tspan></text><text id="text30" style="font-style:italic;font-variant:normal;font-size:8px;font-family:'Times New Roman';-inkscape-font-specification:Times-Italic;writing-mode:lr-tb;fill:#231f20;fill-opacity:1;fill-rule:nonzero;stroke:none" transform="matrix(1,0,0,-1,171.843,92.5128)"><tspan id="tspan28" x="0" y="0">Z</tspan></text><text id="text34" style="font-variant:normal;font-weight:400;font-size:6px;font-family:'Times New Roman';-inkscape-font-specification:Times-Roman;writing-mode:lr-tb;fill:#231f20;fill-opacity:1;fill-rule:nonzero;stroke:none" transform="matrix(1,0,0,-1,176.29222,90.5128)"><tspan id="tspan32" x="0" y="0">1</tspan></text><text id="text38" style="font-style:italic;font-variant:normal;font-size:8px;font-family:'Times New Roman';-inkscape-font-specification:Times-Italic;writing-mode:lr-tb;fill:#231f20;fill-opacity:1;fill-rule:nonzero;stroke:none" transform="matrix(1,0,0,-1,171.843,58.3316)"><tspan id="tspan36" x="0" y="0">Z</tspan></text><text id="text42" style="font-variant:normal;font-weight:400;font-size:6px;font-family:'Times New Roman';-inkscape-font-specification:Times-Roman;writing-mode:lr-tb;fill:#231f20;fill-opacity:1;fill-rule:nonzero;stroke:none" transform="matrix(1,0,0,-1,176.29222,56.3316)"><tspan id="tspan40" x="0" y="0">2</tspan></text><text id="text46" style="font-style:italic;font-variant:normal;font-size:8px;font-family:'Times New Roman';-inkscape-font-specification:Times-Italic;writing-mode:lr-tb;fill:#231f20;fill-opacity:1;fill-rule:nonzero;stroke:none" transform="matrix(1,0,0,-1,171.843,27.355)"><tspan id="tspan44" x="0" y="0">Z</tspan></text><text id="text50" style="font-variant:normal;font-weight:400;font-size:6px;font-family:'Times New Roman';-inkscape-font-specification:Times-Roman;writing-mode:lr-tb;fill:#231f20;fill-opacity:1;fill-rule:nonzero;stroke:none" transform="matrix(1,0,0,-1,176.29222,25.355)"><tspan id="tspan48" x="0" y="0">3</tspan></text><text id="text54" style="font-style:italic;font-variant:normal;font-size:8px;font-family:'Times New Roman';-inkscape-font-specification:Times-Italic;writing-mode:lr-tb;fill:#231f20;fill-opacity:1;fill-rule:nonzero;stroke:none" transform="matrix(1,0,0,-1,171.843,18.49602)"><tspan id="tspan52" x="0" y="0">Z</tspan></text><text id="text58" style="font-variant:normal;font-weight:400;font-size:6px;font-family:'Times New Roman';-inkscape-font-specification:Times-Roman;writing-mode:lr-tb;fill:#231f20;fill-opacity:1;fill-rule:nonzero;stroke:none" transform="matrix(1,0,0,-1,176.29222,16.49602)"><tspan id="tspan56" x="0" y="0">4</tspan></text><text id="text62" style="font-style:italic;font-variant:normal;font-size:8px;font-family:'Times New Roman';-inkscape-font-specification:Times-Italic;writing-mode:lr-tb;fill:#231f20;fill-opacity:1;fill-rule:nonzero;stroke:none" transform="matrix(1,0,0,-1,0.24222,126.90002)"><tspan id="tspan60" x="0" y="0">X</tspan></text><text id="text66" style="font-variant:normal;font-weight:400;font-size:6px;font-family:'Times New Roman';-inkscape-font-specification:Times-Roman;writing-mode:lr-tb;fill:#231f20;fill-opacity:1;fill-rule:nonzero;stroke:none" transform="matrix(1,0,0,-1,5.12894,124.90002)"><tspan id="tspan64" x="0" y="0">0</tspan></text><text id="text70" style="font-style:italic;font-variant:normal;font-size:8px;font-family:'Times New Roman';-inkscape-font-specification:Times-Italic;writing-mode:lr-tb;fill:#231f20;fill-opacity:1;fill-rule:nonzero;stroke:none" transform="matrix(1,0,0,-1,0.24222,118.03986)"><tspan id="tspan68" x="0" y="0">Y</tspan></text><text id="text74" style="font-variant:normal;font-weight:400;font-size:6px;font-family:'Times New Roman';-inkscape-font-specification:Times-Roman;writing-mode:lr-tb;fill:#231f20;fill-opacity:1;fill-rule:nonzero;stroke:none" transform="matrix(1,0,0,-1,4.69144,116.03986)"><tspan id="tspan72" x="0" y="0">0</tspan></text><text id="text78" style="font-style:italic;font-variant:normal;font-size:8px;font-family:'Times New Roman';-inkscape-font-specification:Times-Italic;writing-mode:lr-tb;fill:#231f20;fill-opacity:1;fill-rule:nonzero;stroke:none" transform="matrix(1,0,0,-1,0.24222,93.71836)"><tspan id="tspan76" x="0" y="0">X</tspan></text><text id="text82" style="font-variant:normal;font-weight:400;font-size:6px;font-family:'Times New Roman';-inkscape-font-specification:Times-Roman;writing-mode:lr-tb;fill:#231f20;fill-opacity:1;fill-rule:nonzero;stroke:none" transform="matrix(1,0,0,-1,5.12894,91.71836)"><tspan id="tspan80" x="0" y="0">1</tspan></text><text id="text86" style="font-style:italic;font-variant:normal;font-size:8px;font-family:'Times New Roman';-inkscape-font-specification:Times-Italic;writing-mode:lr-tb;fill:#231f20;fill-opacity:1;fill-rule:nonzero;stroke:none" transform="matrix(1,0,0,-1,0.24222,84.8582)"><tspan id="tspan84" x="0" y="0">Y</tspan></text><text id="text90" style="font-variant:normal;font-weight:400;font-size:6px;font-family:'Times New Roman';-inkscape-font-specification:Times-Roman;writing-mode:lr-tb;fill:#231f20;fill-opacity:1;fill-rule:nonzero;stroke:none" transform="matrix(1,0,0,-1,4.69144,82.8582)"><tspan id="tspan88" x="0" y="0">1</tspan></text><text id="text94" style="font-style:italic;font-variant:normal;font-size:8px;font-family:'Times New Roman';-inkscape-font-specification:Times-Italic;writing-mode:lr-tb;fill:#231f20;fill-opacity:1;fill-rule:nonzero;stroke:none" transform="matrix(1,0,0,-1,0.24222,60.5367)"><tspan id="tspan92" x="0" y="0">X</tspan></text><text id="text98" style="font-variant:normal;font-weight:400;font-size:6px;font-family:'Times New Roman';-inkscape-font-specification:Times-Roman;writing-mode:lr-tb;fill:#231f20;fill-opacity:1;fill-rule:nonzero;stroke:none" transform="matrix(1,0,0,-1,5.12894,58.5367)"><tspan id="tspan96" x="0" y="0">2</tspan></text><text id="text102" style="font-style:italic;font-variant:normal;font-size:8px;font-family:'Times New Roman';-inkscape-font-specification:Times-Italic;writing-mode:lr-tb;fill:#231f20;fill-opacity:1;fill-rule:nonzero;stroke:none" transform="matrix(1,0,0,-1,0.24222,51.67615)"><tspan id="tspan100" x="0" y="0">Y</tspan></text><text id="text106" style="font-variant:normal;font-weight:400;font-size:6px;font-family:'Times New Roman';-inkscape-font-specification:Times-Roman;writing-mode:lr-tb;fill:#231f20;fill-opacity:1;fill-rule:nonzero;stroke:none" transform="matrix(1,0,0,-1,4.69144,49.67615)"><tspan id="tspan104" x="0" y="0">2</tspan></text><text id="text110" style="font-style:italic;font-variant:normal;font-size:8px;font-family:'Times New Roman';-inkscape-font-specification:Times-Italic;writing-mode:lr-tb;fill:#231f20;fill-opacity:1;fill-rule:nonzero;stroke:none" transform="matrix(1,0,0,-1,0.24222,27.35505)"><tspan id="tspan108" x="0" y="0">X</tspan></text><text id="text114" style="font-variant:normal;font-weight:400;font-size:6px;font-family:'Times New Roman';-inkscape-font-specification:Times-Roman;writing-mode:lr-tb;fill:#231f20;fill-opacity:1;fill-rule:nonzero;stroke:none" transform="matrix(1,0,0,-1,5.12894,25.35505)"><tspan id="tspan112" x="0" y="0">3</tspan></text><text id="text118" style="font-style:italic;font-variant:normal;font-size:8px;font-family:'Times New Roman';-inkscape-font-specification:Times-Italic;writing-mode:lr-tb;fill:#231f20;fill-opacity:1;fill-rule:nonzero;stroke:none" transform="matrix(1,0,0,-1,0.24222,18.49607)"><tspan id="tspan116" x="0" y="0">Y</tspan></text><text id="text122" style="font-variant:normal;font-weight:400;font-size:6px;font-family:'Times New Roman';-inkscape-font-specification:Times-Roman;writing-mode:lr-tb;fill:#231f20;fill-opacity:1;fill-rule:nonzero;stroke:none" transform="matrix(1,0,0,-1,4.69144,16.49607)"><tspan id="tspan120" x="0" y="0">3</tspan></text></g><path id="path124" style="fill:#fff;fill-opacity:1;fill-rule:evenodd;stroke:none" d="M 302.18,1116.11 V 1333.3 H 525.398 V 1116.11 H 302.18"/><path id="path126" style="fill:none;stroke:#231f20;stroke-width:12.06599998;stroke-linecap:butt;stroke-linejoin:miter;stroke-miterlimit:10;stroke-dasharray:none;stroke-opacity:1" d="M 302.18,1116.11 V 1333.3 H 525.398 V 1116.11 Z"/><g id="g128" transform="scale(10)"><text id="text132" style="font-style:italic;font-variant:normal;font-size:8px;font-family:'Times New Roman';-inkscape-font-specification:Times-Italic;writing-mode:lr-tb;fill:#231f20;fill-opacity:1;fill-rule:nonzero;stroke:none" transform="matrix(1,0,0,-1,35.6477,120.47)"><tspan id="tspan130" x="0 4.887" y="0">Ad</tspan></text><text id="text136" style="font-variant:normal;font-weight:400;font-size:6px;font-family:'Times New Roman';-inkscape-font-specification:Times-Roman;writing-mode:lr-tb;fill:#231f20;fill-opacity:1;fill-rule:nonzero;stroke:none" transform="matrix(1,0,0,-1,44.53442,118.47)"><tspan id="tspan134" x="0" y="0">0</tspan></text></g><path id="path138" style="fill:#fff;fill-opacity:1;fill-rule:evenodd;stroke:none" d="M 634,778.258 V 1001.48 H 857.219 V 778.258 H 634"/><path id="path140" style="fill:none;stroke:#231f20;stroke-width:12.06599998;stroke-linecap:butt;stroke-linejoin:miter;stroke-miterlimit:10;stroke-dasharray:none;stroke-opacity:1" d="M 634,778.258 V 1001.48 H 857.219 V 778.258 Z"/><g id="g142" transform="scale(10)"><text id="text146" style="font-style:italic;font-variant:normal;font-size:8px;font-family:'Times New Roman';-inkscape-font-specification:Times-Italic;writing-mode:lr-tb;fill:#231f20;fill-opacity:1;fill-rule:nonzero;stroke:none" transform="matrix(1,0,0,-1,68.8293,87.2887)"><tspan id="tspan144" x="0 4.887" y="0">Ad</tspan></text><text id="text150" style="font-variant:normal;font-weight:400;font-size:6px;font-family:'Times New Roman';-inkscape-font-specification:Times-Roman;writing-mode:lr-tb;fill:#231f20;fill-opacity:1;fill-rule:nonzero;stroke:none" transform="matrix(1,0,0,-1,77.71563,85.2887)"><tspan id="tspan148" x="0" y="0">1</tspan></text></g><path id="path152" style="fill:#fff;fill-opacity:1;fill-rule:evenodd;stroke:none" d="M 965.816,446.43 V 669.664 H 1189.03 V 446.43 H 965.816"/><path id="path154" style="fill:none;stroke:#231f20;stroke-width:12.06599998;stroke-linecap:butt;stroke-linejoin:miter;stroke-miterlimit:10;stroke-dasharray:none;stroke-opacity:1" d="M 965.816,446.43 V 669.664 H 1189.03 V 446.43 Z"/><g id="g156" transform="scale(10)"><text id="text160" style="font-style:italic;font-variant:normal;font-size:8px;font-family:'Times New Roman';-inkscape-font-specification:Times-Italic;writing-mode:lr-tb;fill:#231f20;fill-opacity:1;fill-rule:nonzero;stroke:none" transform="matrix(1,0,0,-1,102.011,54.107)"><tspan id="tspan158" x="0 4.887" y="0">Ad</tspan></text><text id="text164" style="font-variant:normal;font-weight:400;font-size:6px;font-family:'Times New Roman';-inkscape-font-specification:Times-Roman;writing-mode:lr-tb;fill:#231f20;fill-opacity:1;fill-rule:nonzero;stroke:none" transform="matrix(1,0,0,-1,110.89694,52.107)"><tspan id="tspan162" x="0" y="0">2</tspan></text></g><path id="path166" style="fill:#fff;fill-opacity:1;fill-rule:evenodd;stroke:none" d="m 1297.63,114.621 v 223.231 h 223.21 V 114.621 h -223.21"/><path id="path168" style="fill:none;stroke:#231f20;stroke-width:12.06599998;stroke-linecap:butt;stroke-linejoin:miter;stroke-miterlimit:10;stroke-dasharray:none;stroke-opacity:1" d="m 1297.63,114.621 v 223.231 h 223.21 V 114.621 Z"/><g id="g170" transform="scale(10)"><text id="text174" style="font-style:italic;font-variant:normal;font-size:8px;font-family:'Times New Roman';-inkscape-font-specification:Times-Italic;writing-mode:lr-tb;fill:#231f20;fill-opacity:1;fill-rule:nonzero;stroke:none" transform="matrix(1,0,0,-1,135.192,20.925)"><tspan id="tspan172" x="0 4.887" y="0">Ad</tspan></text><text id="text178" style="font-variant:normal;font-weight:400;font-size:6px;font-family:'Times New Roman';-inkscape-font-specification:Times-Roman;writing-mode:lr-tb;fill:#231f20;fill-opacity:1;fill-rule:nonzero;stroke:none" transform="matrix(1,0,0,-1,144.07872,18.925)"><tspan id="tspan176" x="0" y="0">3</tspan></text><text id="text182" style="font-style:italic;font-variant:normal;font-size:8px;font-family:'Times New Roman';-inkscape-font-specification:Times-Italic;writing-mode:lr-tb;fill:#231f20;fill-opacity:1;fill-rule:nonzero;stroke:none" transform="matrix(1,0,0,-1,279.62872,96.0023)"><tspan id="tspan180" x="0" y="0">X</tspan></text><text id="text186" style="font-variant:normal;font-weight:400;font-size:6px;font-family:'Times New Roman';-inkscape-font-specification:Times-Roman;writing-mode:lr-tb;fill:#231f20;fill-opacity:1;fill-rule:nonzero;stroke:none" transform="matrix(1,0,0,-1,284.51583,94.0023)"><tspan id="tspan184" x="0" y="0">0</tspan></text><text id="text190" style="font-style:italic;font-variant:normal;font-size:8px;font-family:'Times New Roman';-inkscape-font-specification:Times-Italic;writing-mode:lr-tb;fill:#231f20;fill-opacity:1;fill-rule:nonzero;stroke:none" transform="matrix(1,0,0,-1,264.24083,96.0023)"><tspan id="tspan188" x="0" y="0">X</tspan></text><text id="text194" style="font-variant:normal;font-weight:400;font-size:6px;font-family:'Times New Roman';-inkscape-font-specification:Times-Roman;writing-mode:lr-tb;fill:#231f20;fill-opacity:1;fill-rule:nonzero;stroke:none" transform="matrix(1,0,0,-1,269.12677,94.0023)"><tspan id="tspan192" x="0" y="0">1</tspan></text><text id="text198" style="font-style:italic;font-variant:normal;font-size:8px;font-family:'Times New Roman';-inkscape-font-specification:Times-Italic;writing-mode:lr-tb;fill:#231f20;fill-opacity:1;fill-rule:nonzero;stroke:none" transform="matrix(1,0,0,-1,248.85097,96.0023)"><tspan id="tspan196" x="0" y="0">X</tspan></text><text id="text202" style="font-variant:normal;font-weight:400;font-size:6px;font-family:'Times New Roman';-inkscape-font-specification:Times-Roman;writing-mode:lr-tb;fill:#231f20;fill-opacity:1;fill-rule:nonzero;stroke:none" transform="matrix(1,0,0,-1,253.73769,94.0023)"><tspan id="tspan200" x="0" y="0">2</tspan></text><text id="text206" style="font-style:italic;font-variant:normal;font-size:8px;font-family:'Times New Roman';-inkscape-font-specification:Times-Italic;writing-mode:lr-tb;fill:#231f20;fill-opacity:1;fill-rule:nonzero;stroke:none" transform="matrix(1,0,0,-1,233.46069,96.0023)"><tspan id="tspan204" x="0" y="0">X</tspan></text><text id="text210" style="font-variant:normal;font-weight:400;font-size:6px;font-family:'Times New Roman';-inkscape-font-specification:Times-Roman;writing-mode:lr-tb;fill:#231f20;fill-opacity:1;fill-rule:nonzero;stroke:none" transform="matrix(1,0,0,-1,238.3478,94.0023)"><tspan id="tspan208" x="0" y="0">3</tspan></text><text id="text214" style="font-style:italic;font-variant:normal;font-size:8px;font-family:'Times New Roman';-inkscape-font-specification:Times-Italic;writing-mode:lr-tb;fill:#231f20;fill-opacity:1;fill-rule:nonzero;stroke:none" transform="matrix(1,0,0,-1,279.8478,51.2777)"><tspan id="tspan212" x="0" y="0">Z</tspan></text><text id="text218" style="font-variant:normal;font-weight:400;font-size:6px;font-family:'Times New Roman';-inkscape-font-specification:Times-Roman;writing-mode:lr-tb;fill:#231f20;fill-opacity:1;fill-rule:nonzero;stroke:none" transform="matrix(1,0,0,-1,284.29663,49.2777)"><tspan id="tspan216" x="0" y="0">0</tspan></text><text id="text222" style="font-style:italic;font-variant:normal;font-size:8px;font-family:'Times New Roman';-inkscape-font-specification:Times-Italic;writing-mode:lr-tb;fill:#231f20;fill-opacity:1;fill-rule:nonzero;stroke:none" transform="matrix(1,0,0,-1,264.45873,51.2777)"><tspan id="tspan220" x="0" y="0">Z</tspan></text><text id="text226" style="font-variant:normal;font-weight:400;font-size:6px;font-family:'Times New Roman';-inkscape-font-specification:Times-Roman;writing-mode:lr-tb;fill:#231f20;fill-opacity:1;fill-rule:nonzero;stroke:none" transform="matrix(1,0,0,-1,268.90873,49.2777)"><tspan id="tspan224" x="0" y="0">1</tspan></text><text id="text230" style="font-style:italic;font-variant:normal;font-size:8px;font-family:'Times New Roman';-inkscape-font-specification:Times-Italic;writing-mode:lr-tb;fill:#231f20;fill-opacity:1;fill-rule:nonzero;stroke:none" transform="matrix(1,0,0,-1,249.06963,51.2777)"><tspan id="tspan228" x="0" y="0">Z</tspan></text><text id="text234" style="font-variant:normal;font-weight:400;font-size:6px;font-family:'Times New Roman';-inkscape-font-specification:Times-Roman;writing-mode:lr-tb;fill:#231f20;fill-opacity:1;fill-rule:nonzero;stroke:none" transform="matrix(1,0,0,-1,253.51885,49.2777)"><tspan id="tspan232" x="0" y="0">2</tspan></text><text id="text238" style="font-style:italic;font-variant:normal;font-size:8px;font-family:'Times New Roman';-inkscape-font-specification:Times-Italic;writing-mode:lr-tb;fill:#231f20;fill-opacity:1;fill-rule:nonzero;stroke:none" transform="matrix(1,0,0,-1,233.67975,51.2777)"><tspan id="tspan236" x="0" y="0">Z</tspan></text><text id="text242" style="font-variant:normal;font-weight:400;font-size:6px;font-family:'Times New Roman';-inkscape-font-specification:Times-Roman;writing-mode:lr-tb;fill:#231f20;fill-opacity:1;fill-rule:nonzero;stroke:none" transform="matrix(1,0,0,-1,238.12858,49.2777)"><tspan id="tspan240" x="0" y="0">3</tspan></text><text id="text246" style="font-style:italic;font-variant:normal;font-size:8px;font-family:'Times New Roman';-inkscape-font-specification:Times-Italic;writing-mode:lr-tb;fill:#231f20;fill-opacity:1;fill-rule:nonzero;stroke:none" transform="matrix(1,0,0,-1,218.50988,51.2777)"><tspan id="tspan244" x="0" y="0">Z</tspan></text><text id="text250" style="font-variant:normal;font-weight:400;font-size:6px;font-family:'Times New Roman';-inkscape-font-specification:Times-Roman;writing-mode:lr-tb;fill:#231f20;fill-opacity:1;fill-rule:nonzero;stroke:none" transform="matrix(1,0,0,-1,222.95871,49.2777)"><tspan id="tspan248" x="0" y="0">4</tspan></text><text id="text254" style="font-style:italic;font-variant:normal;font-size:8px;font-family:'Times New Roman';-inkscape-font-specification:Times-Italic;writing-mode:lr-tb;fill:#231f20;fill-opacity:1;fill-rule:nonzero;stroke:none" transform="matrix(1,0,0,-1,279.84781,77.3855)"><tspan id="tspan252" x="0" y="0">Y</tspan></text><text id="text258" style="font-variant:normal;font-weight:400;font-size:6px;font-family:'Times New Roman';-inkscape-font-specification:Times-Roman;writing-mode:lr-tb;fill:#231f20;fill-opacity:1;fill-rule:nonzero;stroke:none" transform="matrix(1,0,0,-1,284.29664,75.3855)"><tspan id="tspan256" x="0" y="0">0</tspan></text><text id="text262" style="font-style:italic;font-variant:normal;font-size:8px;font-family:'Times New Roman';-inkscape-font-specification:Times-Italic;writing-mode:lr-tb;fill:#231f20;fill-opacity:1;fill-rule:nonzero;stroke:none" transform="matrix(1,0,0,-1,264.45874,77.3855)"><tspan id="tspan260" x="0" y="0">Y</tspan></text><text id="text266" style="font-variant:normal;font-weight:400;font-size:6px;font-family:'Times New Roman';-inkscape-font-specification:Times-Roman;writing-mode:lr-tb;fill:#231f20;fill-opacity:1;fill-rule:nonzero;stroke:none" transform="matrix(1,0,0,-1,268.90874,75.3855)"><tspan id="tspan264" x="0" y="0">1</tspan></text><text id="text270" style="font-style:italic;font-variant:normal;font-size:8px;font-family:'Times New Roman';-inkscape-font-specification:Times-Italic;writing-mode:lr-tb;fill:#231f20;fill-opacity:1;fill-rule:nonzero;stroke:none" transform="matrix(1,0,0,-1,249.06964,77.3855)"><tspan id="tspan268" x="0" y="0">Y</tspan></text><text id="text274" style="font-variant:normal;font-weight:400;font-size:6px;font-family:'Times New Roman';-inkscape-font-specification:Times-Roman;writing-mode:lr-tb;fill:#231f20;fill-opacity:1;fill-rule:nonzero;stroke:none" transform="matrix(1,0,0,-1,253.51886,75.3855)"><tspan id="tspan272" x="0" y="0">2</tspan></text><text id="text278" style="font-style:italic;font-variant:normal;font-size:8px;font-family:'Times New Roman';-inkscape-font-specification:Times-Italic;writing-mode:lr-tb;fill:#231f20;fill-opacity:1;fill-rule:nonzero;stroke:none" transform="matrix(1,0,0,-1,233.67976,77.3855)"><tspan id="tspan276" x="0" y="0">Y</tspan></text><text id="text282" style="font-variant:normal;font-weight:400;font-size:6px;font-family:'Times New Roman';-inkscape-font-specification:Times-Roman;writing-mode:lr-tb;fill:#231f20;fill-opacity:1;fill-rule:nonzero;stroke:none" transform="matrix(1,0,0,-1,238.12859,75.3855)"><tspan id="tspan280" x="0" y="0">3</tspan></text><text id="text286" style="font-variant:normal;font-weight:400;font-size:8px;font-family:'Times New Roman';-inkscape-font-specification:Times-Roman;writing-mode:lr-tb;fill:#231f20;fill-opacity:1;fill-rule:nonzero;stroke:none" transform="matrix(1,0,0,-1,219.97859,75.331203)"><tspan id="tspan284" x="0" y="0">+</tspan></text></g><path id="path288" style="fill:none;stroke:#231f20;stroke-width:12.06599998;stroke-linecap:butt;stroke-linejoin:miter;stroke-miterlimit:10;stroke-dasharray:none;stroke-opacity:1" d="m 2161.47,658.395 h 725"/></g></g></svg>