<svg xmlns="http://www.w3.org/2000/svg" xmlns:svg="http://www.w3.org/2000/svg" id="svg2" width="320.973" height="180.547" version="1.1" viewBox="0 0 320.973 180.547" xml:space="preserve"><metadata id="metadata8"/><g id="g10" transform="matrix(1.3333333,0,0,-1.3333333,0,180.54667)"><g id="g12" transform="scale(0.1)"><g id="g14" transform="scale(10)"><text id="text20" style="font-variant:normal;font-weight:700;font-size:7.67999983px;font-family:Helvetica;-inkscape-font-specification:Helvetica-Bold;writing-mode:lr-tb;fill:#231f20;fill-opacity:1;fill-rule:nonzero;stroke:none" transform="matrix(1,0,0,-1,164.372,62.668)"><tspan id="tspan16" x="0 4.271 6.405" y="0">0.5</tspan><tspan id="tspan18" x="47.616 51.887 54.021" y="-.075">0.5</tspan></text></g><path id="path22" style="fill:none;stroke:#231f20;stroke-width:10;stroke-linecap:butt;stroke-linejoin:miter;stroke-miterlimit:10;stroke-dasharray:none;stroke-opacity:1" d="m 2273.15,360.223 97.84,-243.024 m -97.84,243.024 -97.83,-243.024"/><path id="path24" style="fill:none;stroke:#231f20;stroke-width:10;stroke-linecap:butt;stroke-linejoin:miter;stroke-miterlimit:10;stroke-dasharray:none;stroke-opacity:1" d="m 1588.37,360.223 97.83,-243.024 m -97.83,243.024 -97.82,-243.024"/><path id="path26" style="fill:none;stroke:#231f20;stroke-width:10;stroke-linecap:butt;stroke-linejoin:miter;stroke-miterlimit:10;stroke-dasharray:none;stroke-opacity:1" d="M 1933.82,753.059 1591.43,459.59 M 1933.82,753.059 2276.2,459.59"/><g id="g28" transform="scale(10)"><text id="text34" style="font-variant:normal;font-weight:700;font-size:7.67999983px;font-family:Helvetica;-inkscape-font-specification:Helvetica-Bold;writing-mode:lr-tb;fill:#231f20;fill-opacity:1;fill-rule:nonzero;stroke:none" transform="matrix(1,0,0,-1,17.1527,62.5074)"><tspan id="tspan30" x="0 4.271 6.405" y="0">0.5</tspan><tspan id="tspan32" x="47.615 51.886 54.02" y=".085">0.5</tspan></text></g><path id="path36" style="fill:none;stroke:#231f20;stroke-width:10;stroke-linecap:butt;stroke-linejoin:miter;stroke-miterlimit:10;stroke-dasharray:none;stroke-opacity:1" d="M 805.77,360.223 903.594,117.199 M 805.77,360.223 707.945,117.199"/><path id="path38" style="fill:none;stroke:#231f20;stroke-width:10;stroke-linecap:butt;stroke-linejoin:miter;stroke-miterlimit:10;stroke-dasharray:none;stroke-opacity:1" d="M 120.992,360.223 218.816,117.199 M 120.992,360.223 23.1641,117.199"/><path id="path40" style="fill:none;stroke:#231f20;stroke-width:10;stroke-linecap:butt;stroke-linejoin:miter;stroke-miterlimit:10;stroke-dasharray:none;stroke-opacity:1" d="M 1200.13,1193.27 1933.82,850.887 M 1200.13,1193.27 466.441,850.887 M 466.445,753.059 124.055,459.59 M 466.445,753.059 808.828,459.59"/><path id="path42" style="fill:#c8c7c7;fill-opacity:1;fill-rule:evenodd;stroke:none" d="m 1289.89,1174.5 -88.1,168.77 -88.12,-168.77 z"/><path id="path44" style="fill:none;stroke:#231f20;stroke-width:10;stroke-linecap:butt;stroke-linejoin:miter;stroke-miterlimit:10;stroke-dasharray:none;stroke-opacity:1" d="m 1289.89,1174.5 -88.1,168.77 -88.12,-168.77 z"/><path id="path46" style="fill:#c8c7c7;fill-opacity:1;fill-rule:evenodd;stroke:none" d="M 893.887,481.891 805.766,313.102 717.656,481.891 Z"/><path id="path48" style="fill:none;stroke:#231f20;stroke-width:10;stroke-linecap:butt;stroke-linejoin:miter;stroke-miterlimit:10;stroke-dasharray:none;stroke-opacity:1" d="M 893.887,481.891 805.766,313.102 717.656,481.891 Z"/><path id="path50" style="fill:#c8c7c7;fill-opacity:1;fill-rule:evenodd;stroke:none" d="m 2361.27,481.891 -88.11,-168.789 -88.11,168.789 z"/><path id="path52" style="fill:none;stroke:#231f20;stroke-width:10;stroke-linecap:butt;stroke-linejoin:miter;stroke-miterlimit:10;stroke-dasharray:none;stroke-opacity:1" d="m 2361.27,481.891 -88.11,-168.789 -88.11,168.789 z"/><path id="path54" style="fill:#c8c7c7;fill-opacity:1;fill-rule:evenodd;stroke:none" d="m 2016.13,809.961 c 0,45.434 -36.87,82.309 -82.31,82.309 -45.44,0 -82.32,-36.875 -82.32,-82.309 0,-45.441 36.88,-82.316 82.32,-82.316 45.44,0 82.31,36.875 82.31,82.316 v 0"/><path id="path56" style="fill:none;stroke:#231f20;stroke-width:10;stroke-linecap:butt;stroke-linejoin:miter;stroke-miterlimit:10;stroke-dasharray:none;stroke-opacity:1" d="m 2016.13,809.961 c 0,45.434 -36.87,82.309 -82.31,82.309 -45.44,0 -82.32,-36.875 -82.32,-82.309 0,-45.441 36.88,-82.316 82.32,-82.316 45.44,0 82.31,36.875 82.31,82.316 z"/><path id="path58" style="fill:#c8c7c7;fill-opacity:1;fill-rule:evenodd;stroke:none" d="M 1676.49,459.59 1588.38,290.801 1500.26,459.59 Z"/><path id="path60" style="fill:none;stroke:#231f20;stroke-width:10;stroke-linecap:butt;stroke-linejoin:miter;stroke-miterlimit:10;stroke-dasharray:none;stroke-opacity:1" d="M 1676.49,459.59 1588.38,290.801 1500.26,459.59 Z"/><path id="path62" style="fill:#c8c7c7;fill-opacity:1;fill-rule:evenodd;stroke:none" d="M 209.102,481.891 120.996,313.102 32.8828,481.891 Z"/><path id="path64" style="fill:none;stroke:#231f20;stroke-width:10;stroke-linecap:butt;stroke-linejoin:miter;stroke-miterlimit:10;stroke-dasharray:none;stroke-opacity:1" d="M 209.102,481.891 120.996,313.102 32.8828,481.891 Z"/><path id="path66" style="fill:#c8c7c7;fill-opacity:1;fill-rule:evenodd;stroke:none" d="m 546.328,809.961 c 0,45.434 -36.879,82.309 -82.32,82.309 -45.43,0 -82.313,-36.875 -82.313,-82.309 0,-45.441 36.883,-82.316 82.313,-82.316 45.441,0 82.32,36.875 82.32,82.316 v 0"/><path id="path68" style="fill:none;stroke:#231f20;stroke-width:10;stroke-linecap:butt;stroke-linejoin:miter;stroke-miterlimit:10;stroke-dasharray:none;stroke-opacity:1" d="m 546.328,809.961 c 0,45.434 -36.879,82.309 -82.32,82.309 -45.43,0 -82.313,-36.875 -82.313,-82.309 0,-45.441 36.883,-82.316 82.313,-82.316 45.441,0 82.32,36.875 82.32,82.316 z"/><g id="g70" transform="scale(10)"><text id="text86" style="font-variant:normal;font-weight:700;font-size:7.67999983px;font-family:Helvetica;-inkscape-font-specification:Helvetica-Bold;writing-mode:lr-tb;fill:#231f20;fill-opacity:1;fill-rule:nonzero;stroke:none" transform="matrix(1,0,0,-1,0,3.925)"><tspan id="tspan72" x="0" y="0">2</tspan><tspan id="tspan74" x="20.59" y="-.137">2</tspan><tspan id="tspan76" x="67.452 89.879" y="-.497">12</tspan><tspan id="tspan78" x="146.691" y=".094">0</tspan><tspan id="tspan80" x="167.488" y=".232">2</tspan><tspan id="tspan82" x="212.847 215.404" y="-.016">-1</tspan><tspan id="tspan84" x="236.457" y="-.497">0</tspan></text></g></g></g></svg>