<svg xmlns="http://www.w3.org/2000/svg" xmlns:svg="http://www.w3.org/2000/svg" id="svg2" width="253.907" height="171.093" version="1.1" viewBox="0 0 253.907 171.093" xml:space="preserve"><metadata id="metadata8"/><g id="g10" transform="matrix(1.3333333,0,0,-1.3333333,0,171.09333)"><g id="g12" transform="scale(0.1)"><path id="path14" style="fill:none;stroke:#231f20;stroke-width:8.36400032;stroke-linecap:butt;stroke-linejoin:miter;stroke-miterlimit:10;stroke-dasharray:none;stroke-opacity:1" d="M 506.824,1128.16 1309.82,793.582"/><path id="path16" style="fill:#231f20;fill-opacity:1;fill-rule:evenodd;stroke:none" d="m 1252.69,841.316 73.04,-54.367 -90.04,13.594"/><path id="path18" style="fill:none;stroke:#231f20;stroke-width:8.36400032;stroke-linecap:butt;stroke-linejoin:miter;stroke-miterlimit:10;stroke-dasharray:none;stroke-opacity:1" d="m 1254.48,834.762 55.34,-41.18 -68.21,10.293"/><path id="path20" style="fill:none;stroke:#231f20;stroke-width:8.36400032;stroke-linecap:butt;stroke-linejoin:miter;stroke-miterlimit:10;stroke-dasharray:none;stroke-opacity:1" d="M 1482.66,1128.16 1888.34,965.055"/><path id="path22" style="fill:#231f20;fill-opacity:1;fill-rule:evenodd;stroke:none" d="m 1830.62,1012.07 73.72,-53.445 -90.21,12.461"/><path id="path24" style="fill:none;stroke:#231f20;stroke-width:8.36400032;stroke-linecap:butt;stroke-linejoin:miter;stroke-miterlimit:10;stroke-dasharray:none;stroke-opacity:1" d="m 1832.49,1005.54 55.85,-40.485 -68.33,9.445"/><path id="path26" style="fill:none;stroke:#231f20;stroke-width:8.36400032;stroke-linecap:butt;stroke-linejoin:miter;stroke-miterlimit:10;stroke-dasharray:none;stroke-opacity:1" d="m 640.66,1128.16 h 669.16"/><path id="path28" style="fill:#231f20;fill-opacity:1;fill-rule:evenodd;stroke:none" d="m 1238.72,1150.25 88.34,-22.09 -88.34,-22.08"/><path id="path30" style="fill:none;stroke:#231f20;stroke-width:8.36400032;stroke-linecap:butt;stroke-linejoin:miter;stroke-miterlimit:10;stroke-dasharray:none;stroke-opacity:1" d="m 1242.9,1144.89 66.92,-16.73 -66.92,-16.73"/><path id="path32" style="fill:none;stroke:#231f20;stroke-width:8.36400032;stroke-linecap:butt;stroke-linejoin:miter;stroke-miterlimit:10;stroke-dasharray:none;stroke-opacity:1" d="m 640.66,726.668 h 669.16"/><path id="path34" style="fill:#231f20;fill-opacity:1;fill-rule:evenodd;stroke:none" d="m 1238.72,748.758 88.34,-22.09 -88.34,-22.086"/><path id="path36" style="fill:none;stroke:#231f20;stroke-width:8.36400032;stroke-linecap:butt;stroke-linejoin:miter;stroke-miterlimit:10;stroke-dasharray:none;stroke-opacity:1" d="m 1242.9,743.395 66.92,-16.727 -66.92,-16.73"/><path id="path38" style="fill:none;stroke:#231f20;stroke-width:8.36400032;stroke-linecap:butt;stroke-linejoin:miter;stroke-miterlimit:10;stroke-dasharray:none;stroke-opacity:1" d="m 1614.4,726.668 h 267.66"/><path id="path40" style="fill:#231f20;fill-opacity:1;fill-rule:evenodd;stroke:none" d="m 1810.96,748.758 88.35,-22.09 -88.35,-22.086"/><path id="path42" style="fill:none;stroke:#231f20;stroke-width:8.36400032;stroke-linecap:butt;stroke-linejoin:miter;stroke-miterlimit:10;stroke-dasharray:none;stroke-opacity:1" d="m 1815.15,743.395 66.91,-16.727 -66.91,-16.73"/><path id="path44" style="fill:none;stroke:#231f20;stroke-width:8.36400032;stroke-linecap:butt;stroke-linejoin:miter;stroke-miterlimit:10;stroke-dasharray:none;stroke-opacity:1" d="m 1614.4,1128.16 h 267.66"/><path id="path46" style="fill:#231f20;fill-opacity:1;fill-rule:evenodd;stroke:none" d="m 1810.96,1150.25 88.35,-22.09 -88.35,-22.08"/><path id="path48" style="fill:none;stroke:#231f20;stroke-width:8.36400032;stroke-linecap:butt;stroke-linejoin:miter;stroke-miterlimit:10;stroke-dasharray:none;stroke-opacity:1" d="m 1815.15,1144.89 66.91,-16.73 -66.91,-16.73"/><path id="path50" style="fill:none;stroke:#231f20;stroke-width:8.36400032;stroke-linecap:butt;stroke-linejoin:miter;stroke-miterlimit:10;stroke-dasharray:none;stroke-opacity:1" d="M 1.49219,1128.16 H 336.074"/><path id="path52" style="fill:#231f20;fill-opacity:1;fill-rule:evenodd;stroke:none" d="m 264.98,1150.25 88.34,-22.09 -88.34,-22.08"/><path id="path54" style="fill:none;stroke:#231f20;stroke-width:8.36400032;stroke-linecap:butt;stroke-linejoin:miter;stroke-miterlimit:10;stroke-dasharray:none;stroke-opacity:1" d="m 269.16,1144.89 66.914,-16.73 -66.914,-16.73"/><path id="path56" style="fill:none;stroke:#231f20;stroke-width:8.36400032;stroke-linecap:butt;stroke-linejoin:miter;stroke-miterlimit:10;stroke-dasharray:none;stroke-opacity:1" d="M 1.49219,726.668 H 336.074"/><path id="path58" style="fill:#231f20;fill-opacity:1;fill-rule:evenodd;stroke:none" d="m 264.98,748.758 88.34,-22.09 -88.34,-22.086"/><path id="path60" style="fill:none;stroke:#231f20;stroke-width:8.36400032;stroke-linecap:butt;stroke-linejoin:miter;stroke-miterlimit:10;stroke-dasharray:none;stroke-opacity:1" d="m 269.16,743.395 66.914,-16.727 -66.914,-16.73"/><path id="path62" style="fill:none;stroke:#231f20;stroke-width:8.36400032;stroke-linecap:butt;stroke-linejoin:miter;stroke-miterlimit:10;stroke-dasharray:none;stroke-opacity:1" d="M 1.49219,927.414 340.266,797.766"/><path id="path64" style="fill:#231f20;fill-opacity:1;fill-rule:evenodd;stroke:none" d="m 281.754,843.805 74.609,-52.2 -90.394,10.946"/><path id="path66" style="fill:none;stroke:#231f20;stroke-width:8.36400032;stroke-linecap:butt;stroke-linejoin:miter;stroke-miterlimit:10;stroke-dasharray:none;stroke-opacity:1" d="m 283.746,837.309 56.52,-39.543 -68.485,8.297"/><path id="path68" style="fill:none;stroke:#231f20;stroke-width:8.36400032;stroke-linecap:butt;stroke-linejoin:miter;stroke-miterlimit:10;stroke-dasharray:none;stroke-opacity:1" d="M 1480.57,592.84 V 325.164"/><path id="path70" style="fill:#231f20;fill-opacity:1;fill-rule:evenodd;stroke:none" d="m 1502.66,396.266 -22.09,-88.348 -22.09,88.348"/><path id="path72" style="fill:none;stroke:#231f20;stroke-width:8.36400032;stroke-linecap:butt;stroke-linejoin:miter;stroke-miterlimit:10;stroke-dasharray:none;stroke-opacity:1" d="m 1497.29,392.086 -16.72,-66.922 -16.73,66.922"/><path id="path74" style="fill:none;stroke:#231f20;stroke-width:8.36400032;stroke-linecap:butt;stroke-linejoin:miter;stroke-miterlimit:10;stroke-dasharray:none;stroke-opacity:1" d="M 506.824,592.84 V 325.164"/><path id="path76" style="fill:#231f20;fill-opacity:1;fill-rule:evenodd;stroke:none" d="m 528.906,396.266 -22.082,-88.348 -22.09,88.348"/><path id="path78" style="fill:none;stroke:#231f20;stroke-width:8.36400032;stroke-linecap:butt;stroke-linejoin:miter;stroke-miterlimit:10;stroke-dasharray:none;stroke-opacity:1" d="m 523.555,392.086 -16.731,-66.922 -16.726,66.922"/><path id="path80" style="fill:#fff;fill-opacity:1;fill-rule:evenodd;stroke:none" d="m 657.48,154.719 c 0,83.133 -67.453,150.582 -150.562,150.582 -83.109,0 -150.563,-67.449 -150.563,-150.582 0,-83.0901 67.454,-150.53931 150.563,-150.53931 83.109,0 150.562,67.44921 150.562,150.53931"/><path id="path82" style="fill:none;stroke:#231f20;stroke-width:8.36400032;stroke-linecap:butt;stroke-linejoin:miter;stroke-miterlimit:10;stroke-dasharray:none;stroke-opacity:1" d="m 657.48,154.719 c 0,83.133 -67.453,150.582 -150.562,150.582 -83.109,0 -150.563,-67.449 -150.563,-150.582 0,-83.0901 67.454,-150.53931 150.563,-150.53931 83.109,0 150.562,67.44921 150.562,150.53931"/><path id="path84" style="fill:#fff;fill-opacity:1;fill-rule:evenodd;stroke:none" d="m 1631.24,154.719 c 0,83.133 -67.45,150.582 -150.56,150.582 -83.11,0 -150.56,-67.449 -150.56,-150.582 0,-83.0901 67.45,-150.53931 150.56,-150.53931 83.11,0 150.56,67.44921 150.56,150.53931"/><path id="path86" style="fill:none;stroke:#231f20;stroke-width:8.36400032;stroke-linecap:butt;stroke-linejoin:miter;stroke-miterlimit:10;stroke-dasharray:none;stroke-opacity:1" d="m 1631.24,154.719 c 0,83.133 -67.45,150.582 -150.56,150.582 -83.11,0 -150.56,-67.449 -150.56,-150.582 0,-83.0901 67.45,-150.53931 150.56,-150.53931 83.11,0 150.56,67.44921 150.56,150.53931"/><path id="path88" style="fill:#fff;fill-opacity:1;fill-rule:evenodd;stroke:none" d="m 657.48,726.781 c 0,83.11 -67.453,150.559 -150.562,150.559 -83.109,0 -150.563,-67.449 -150.563,-150.559 0,-83.113 67.454,-150.566 150.563,-150.566 83.109,0 150.562,67.453 150.562,150.566"/><path id="path90" style="fill:none;stroke:#231f20;stroke-width:8.36400032;stroke-linecap:butt;stroke-linejoin:miter;stroke-miterlimit:10;stroke-dasharray:none;stroke-opacity:1" d="m 657.48,726.781 c 0,83.11 -67.453,150.559 -150.562,150.559 -83.109,0 -150.563,-67.449 -150.563,-150.559 0,-83.113 67.454,-150.566 150.563,-150.566 83.109,0 150.562,67.453 150.562,150.566"/><path id="path92" style="fill:#fff;fill-opacity:1;fill-rule:evenodd;stroke:none" d="m 1631.24,726.781 c 0,83.11 -67.45,150.559 -150.56,150.559 -83.11,0 -150.56,-67.449 -150.56,-150.559 0,-83.113 67.45,-150.566 150.56,-150.566 83.11,0 150.56,67.453 150.56,150.566"/><path id="path94" style="fill:none;stroke:#231f20;stroke-width:8.36400032;stroke-linecap:butt;stroke-linejoin:miter;stroke-miterlimit:10;stroke-dasharray:none;stroke-opacity:1" d="m 1631.24,726.781 c 0,83.11 -67.45,150.559 -150.56,150.559 -83.11,0 -150.56,-67.449 -150.56,-150.559 0,-83.113 67.45,-150.566 150.56,-150.566 83.11,0 150.56,67.453 150.56,150.566"/><path id="path96" style="fill:#fff;fill-opacity:1;fill-rule:evenodd;stroke:none" d="m 657.48,1128.49 c 0,83.12 -67.453,150.56 -150.562,150.56 -83.109,0 -150.563,-67.44 -150.563,-150.56 0,-83.1 67.454,-150.556 150.563,-150.556 83.109,0 150.562,67.456 150.562,150.556"/><path id="path98" style="fill:none;stroke:#231f20;stroke-width:8.36400032;stroke-linecap:butt;stroke-linejoin:miter;stroke-miterlimit:10;stroke-dasharray:none;stroke-opacity:1" d="m 657.48,1128.49 c 0,83.12 -67.453,150.56 -150.562,150.56 -83.109,0 -150.563,-67.44 -150.563,-150.56 0,-83.1 67.454,-150.556 150.563,-150.556 83.109,0 150.562,67.456 150.562,150.556"/><path id="path100" style="fill:#fff;fill-opacity:1;fill-rule:evenodd;stroke:none" d="m 1631.24,1128.49 c 0,83.12 -67.45,150.56 -150.56,150.56 -83.11,0 -150.56,-67.44 -150.56,-150.56 0,-83.1 67.45,-150.556 150.56,-150.556 83.11,0 150.56,67.456 150.56,150.556"/><path id="path102" style="fill:none;stroke:#231f20;stroke-width:8.36400032;stroke-linecap:butt;stroke-linejoin:miter;stroke-miterlimit:10;stroke-dasharray:none;stroke-opacity:1" d="m 1631.24,1128.49 c 0,83.12 -67.45,150.56 -150.56,150.56 -83.11,0 -150.56,-67.44 -150.56,-150.56 0,-83.1 67.45,-150.556 150.56,-150.556 83.11,0 150.56,67.456 150.56,150.556"/><g id="g104" transform="scale(10)"><text id="text108" style="font-variant:normal;font-weight:700;font-size:12px;font-family:'Times New Roman';-inkscape-font-specification:Times-Bold;writing-mode:lr-tb;fill:#231f20;fill-opacity:1;fill-rule:nonzero;stroke:none" transform="matrix(1,0,0,-1,45.1086,70.3133)"><tspan id="tspan106" x="0" y="0">X</tspan></text><text id="text112" style="font-style:italic;font-variant:normal;font-size:9px;font-family:'Times New Roman';-inkscape-font-specification:Times-Italic;writing-mode:lr-tb;fill:#231f20;fill-opacity:1;fill-rule:nonzero;stroke:none" transform="matrix(1,0,0,-1,53.77423,67.3133)"><tspan id="tspan110" x="0" y="0">t</tspan></text><text id="text116" style="font-variant:normal;font-weight:700;font-size:12px;font-family:'Times New Roman';-inkscape-font-specification:Times-Bold;writing-mode:lr-tb;fill:#231f20;fill-opacity:1;fill-rule:nonzero;stroke:none" transform="matrix(1,0,0,-1,46.17032,110.4852)"><tspan id="tspan114" x="0" y="0">S</tspan></text><text id="text120" style="font-style:italic;font-variant:normal;font-size:9px;font-family:'Times New Roman';-inkscape-font-specification:Times-Italic;writing-mode:lr-tb;fill:#231f20;fill-opacity:1;fill-rule:nonzero;stroke:none" transform="matrix(1,0,0,-1,52.84415,107.4852)"><tspan id="tspan118" x="0" y="0">t</tspan></text><text id="text124" style="font-variant:normal;font-weight:700;font-size:12px;font-family:'Times New Roman';-inkscape-font-specification:Times-Bold;writing-mode:lr-tb;fill:#231f20;fill-opacity:1;fill-rule:nonzero;stroke:none" transform="matrix(1,0,0,-1,45.50352,13.1102)"><tspan id="tspan122" x="0" y="0">Z</tspan></text><text id="text128" style="font-style:italic;font-variant:normal;font-size:9px;font-family:'Times New Roman';-inkscape-font-specification:Times-Italic;writing-mode:lr-tb;fill:#231f20;fill-opacity:1;fill-rule:nonzero;stroke:none" transform="matrix(1,0,0,-1,53.50743,10.1102)"><tspan id="tspan126" x="0" y="0">t</tspan></text><text id="text132" style="font-variant:normal;font-weight:700;font-size:12px;font-family:'Times New Roman';-inkscape-font-specification:Times-Bold;writing-mode:lr-tb;fill:#231f20;fill-opacity:1;fill-rule:nonzero;stroke:none" transform="matrix(1,0,0,-1,139.83713,13.1102)"><tspan id="tspan130" x="0" y="0">Z</tspan></text><text id="text136" style="font-style:italic;font-variant:normal;font-size:9px;font-family:'Times New Roman';-inkscape-font-specification:Times-Italic;writing-mode:lr-tb;fill:#231f20;fill-opacity:1;fill-rule:nonzero;stroke:none" transform="matrix(1,0,0,-1,147.84104,10.1102)"><tspan id="tspan134" x="0" y="0">t</tspan></text><text id="text140" style="font-variant:normal;font-weight:400;font-size:9px;font-family:'Times New Roman';-inkscape-font-specification:Times-Roman;writing-mode:lr-tb;fill:#231f20;fill-opacity:1;fill-rule:nonzero;stroke:none" transform="matrix(1,0,0,-1,150.34104,10.1102)"><tspan id="tspan138" x="0 5.076" y="0">+1</tspan></text><text id="text144" style="font-variant:normal;font-weight:700;font-size:12px;font-family:'Times New Roman';-inkscape-font-specification:Times-Bold;writing-mode:lr-tb;fill:#231f20;fill-opacity:1;fill-rule:nonzero;stroke:none" transform="matrix(1,0,0,-1,138.50314,70.3133)"><tspan id="tspan142" x="0" y="0">X</tspan></text><text id="text148" style="font-style:italic;font-variant:normal;font-size:9px;font-family:'Times New Roman';-inkscape-font-specification:Times-Italic;writing-mode:lr-tb;fill:#231f20;fill-opacity:1;fill-rule:nonzero;stroke:none" transform="matrix(1,0,0,-1,147.16916,67.3133)"><tspan id="tspan146" x="0" y="0">t</tspan></text><text id="text152" style="font-variant:normal;font-weight:400;font-size:9px;font-family:'Times New Roman';-inkscape-font-specification:Times-Roman;writing-mode:lr-tb;fill:#231f20;fill-opacity:1;fill-rule:nonzero;stroke:none" transform="matrix(1,0,0,-1,149.66916,67.3133)"><tspan id="tspan150" x="0 5.076" y="0">+1</tspan></text><text id="text156" style="font-variant:normal;font-weight:700;font-size:12px;font-family:'Times New Roman';-inkscape-font-specification:Times-Bold;writing-mode:lr-tb;fill:#231f20;fill-opacity:1;fill-rule:nonzero;stroke:none" transform="matrix(1,0,0,-1,140.50314,110.4852)"><tspan id="tspan154" x="0" y="0">S</tspan></text><text id="text160" style="font-style:italic;font-variant:normal;font-size:9px;font-family:'Times New Roman';-inkscape-font-specification:Times-Italic;writing-mode:lr-tb;fill:#231f20;fill-opacity:1;fill-rule:nonzero;stroke:none" transform="matrix(1,0,0,-1,147.17697,107.4852)"><tspan id="tspan158" x="0" y="0">t</tspan></text><text id="text164" style="font-variant:normal;font-weight:400;font-size:9px;font-family:'Times New Roman';-inkscape-font-specification:Times-Roman;writing-mode:lr-tb;fill:#231f20;fill-opacity:1;fill-rule:nonzero;stroke:none" transform="matrix(1,0,0,-1,149.67697,107.4852)"><tspan id="tspan162" x="0 5.076" y="0">+1</tspan></text></g></g></g></svg>